<svg width="360" height="212" viewBox="0 0 360 212" fill="none" xmlns="http://www.w3.org/2000/svg">
<g clip-path="url(#clip0_79_3)">
<path d="M360 106C360 164.542 312.243 212 253.333 212H251.953H251.103L250.28 211.98C249.673 211.98 249.063 211.94 248.46 211.914C248.223 211.914 247.99 211.894 247.753 211.877L246.483 211.808L245.56 211.745L245.243 211.722C244.967 211.702 244.69 211.682 244.413 211.656C244.137 211.629 243.92 211.616 243.673 211.593C243.37 211.566 243.067 211.54 242.76 211.506L242.25 211.457C241.53 211.384 240.813 211.304 240.097 211.212C239.827 211.182 239.553 211.145 239.28 211.109C238.613 211.027 237.959 210.936 237.317 210.834L236.333 210.675C236 210.625 235.667 210.572 235.36 210.516L234.39 210.347C233.963 210.274 233.537 210.195 233.117 210.112C232.783 210.056 232.483 209.993 232.167 209.93L231.5 209.791C230.853 209.658 230.213 209.519 229.573 209.373L228.63 209.155L227.68 208.926C227.047 208.774 226.417 208.612 225.79 208.442L224.853 208.191L223.917 207.929C223.293 207.75 222.67 207.568 222.053 207.379L221.253 207.134L220.867 207.011L220.107 206.766C219.46 206.554 218.813 206.339 218.173 206.104L217.253 205.773L217.16 205.739L216.26 205.408C215.303 205.077 214.36 204.696 213.42 204.315L212.483 203.934L211.55 203.543C210.928 203.285 210.31 203.016 209.697 202.738L208.9 202.394L208.643 202.278L208.017 201.986C205.35 200.745 202.742 199.394 200.193 197.932L199.397 197.471C198.967 197.223 198.537 196.968 198.113 196.71L197.447 196.295L197.193 196.143L196.563 195.749C195.652 195.184 194.754 194.603 193.87 194.007L193.06 193.45C192.664 193.183 192.271 192.911 191.88 192.635C191.858 192.622 191.836 192.606 191.817 192.589C191.412 192.306 191.012 192.021 190.617 191.734L190.547 191.684C190.118 191.373 189.691 191.058 189.267 190.74C189.216 190.707 189.167 190.67 189.12 190.631C188.75 190.356 188.383 190.078 188.02 189.793C187.933 189.733 187.853 189.67 187.773 189.604C187.417 189.329 187.06 189.051 186.707 188.766C186.573 188.663 186.44 188.554 186.307 188.435C185.947 188.15 185.587 187.855 185.23 187.557C185.15 187.497 185.073 187.435 185 187.368C184.747 187.161 184.493 186.949 184.24 186.732C184.013 186.543 183.787 186.348 183.573 186.156C183.193 185.836 182.819 185.504 182.45 185.162C182.053 184.814 181.663 184.46 181.273 184.105C180.883 183.751 180.517 183.413 180.143 183.059C178.294 181.33 176.509 179.532 174.787 177.666C174.59 177.457 174.397 177.245 174.207 177.033C173.94 176.745 173.677 176.454 173.42 176.159C173.163 175.864 172.93 175.609 172.69 175.331C172.45 175.052 172.133 174.688 171.857 174.363C171.043 173.412 170.25 172.445 169.477 171.465L168.837 170.647C168.23 169.872 167.637 169.085 167.057 168.288C166.723 167.831 166.39 167.374 166.057 166.91C166.033 166.88 166.01 166.847 165.99 166.814C165.668 166.357 165.348 165.897 165.03 165.433C164.739 165.013 164.454 164.59 164.177 164.164C164.063 163.999 163.95 163.833 163.843 163.654C163.641 163.349 163.441 163.041 163.243 162.73C163.167 162.614 163.09 162.498 163.02 162.379C162.733 161.937 162.451 161.484 162.173 161.021C161.867 160.524 161.567 160.027 161.27 159.517C160.973 159.007 160.68 158.523 160.39 158C160.223 157.705 160.057 157.413 159.893 157.115L159.537 156.453C159.333 156.088 159.137 155.721 158.94 155.353C158.893 155.267 158.847 155.177 158.803 155.088C158.637 154.757 158.47 154.455 158.307 154.137C158.107 153.746 157.91 153.356 157.713 152.965C157.517 152.574 157.327 152.18 157.137 151.789C156.754 151 156.382 150.206 156.02 149.407C155.658 148.608 155.306 147.803 154.963 146.992C154.793 146.588 154.63 146.181 154.457 145.773C154.283 145.366 154.123 144.962 153.967 144.554C153.807 144.147 153.633 143.739 153.493 143.329C153.353 142.918 153.183 142.504 153.03 142.09C152.586 140.849 152.156 139.594 151.74 138.327C151.603 137.906 151.47 137.482 151.34 137.058C151.15 136.445 150.967 135.826 150.787 135.206C150.7 134.898 150.61 134.587 150.523 134.276C150.437 133.964 150.353 133.656 150.27 133.345C150.099 132.722 149.937 132.096 149.783 131.467C149.703 131.153 149.627 130.838 149.553 130.522L149.333 129.585C149.187 128.949 149.047 128.313 148.913 127.67L148.773 127.008C148.71 126.693 148.647 126.379 148.59 126.064C148.507 125.646 148.427 125.222 148.353 124.798C148.293 124.478 148.237 124.157 148.183 123.835C148.127 123.503 148.073 123.172 148.023 122.867C147.973 122.563 147.92 122.205 147.87 121.893C147.77 121.231 147.68 120.595 147.593 119.942C147.557 119.671 147.52 119.399 147.49 119.131C147.397 118.419 147.317 117.706 147.243 116.991C147.223 116.823 147.207 116.654 147.193 116.484C147.16 116.179 147.133 115.878 147.107 115.576C147.083 115.331 147.06 115.086 147.043 114.841C147.027 114.596 146.997 114.291 146.977 114.016C146.977 113.91 146.96 113.808 146.953 113.702C146.93 113.397 146.91 113.089 146.89 112.784C146.863 112.362 146.84 111.942 146.82 111.522C146.803 111.287 146.793 111.055 146.783 110.82C146.757 110.22 146.733 109.614 146.717 109.011L146.697 108.193C146.697 107.911 146.697 107.63 146.697 107.348C146.697 106.891 146.697 106.434 146.697 105.977C146.697 105.52 146.697 105.063 146.697 104.605C146.697 104.208 146.703 103.81 146.717 103.413C146.74 102.393 146.78 101.379 146.837 100.365C146.853 99.9944 146.873 99.6201 146.9 99.2491C146.937 98.6628 146.977 98.0732 147.023 97.4902C147.05 97.1589 147.08 96.8277 147.11 96.4766C147.143 96.0824 147.183 95.6882 147.223 95.2907L147.253 94.9793C147.293 94.5885 147.337 94.1976 147.383 93.8067C147.43 93.3959 147.48 92.9885 147.53 92.5844C147.57 92.273 147.61 91.9649 147.653 91.6569C147.697 91.3488 147.73 91.1037 147.77 90.8288C147.888 90.0028 148.016 89.1813 148.153 88.3643C148.217 87.9899 148.28 87.619 148.347 87.248C148.345 87.227 148.345 87.206 148.347 87.185C148.487 86.3933 148.637 85.6083 148.8 84.8232C148.837 84.6377 148.873 84.4555 148.913 84.2733C149.02 83.7533 149.133 83.2332 149.247 82.7164C149.502 81.5747 149.779 80.4408 150.077 79.3145C150.197 78.8474 150.32 78.3804 150.45 77.9133C150.593 77.3899 150.743 76.8633 150.897 76.3432C151.033 75.8728 151.173 75.4024 151.32 74.9354C151.343 74.8459 151.37 74.7598 151.4 74.6737C151.55 74.1901 151.703 73.7098 151.86 73.2294C152.027 72.716 152.193 72.2092 152.373 71.6991C152.553 71.1889 152.723 70.7053 152.907 70.1853L152.927 70.1289C153.04 69.7977 153.157 69.4929 153.28 69.1783C153.403 68.8636 153.48 68.635 153.583 68.3634C153.917 67.5121 154.25 66.6641 154.583 65.826C154.697 65.5478 154.81 65.2695 154.917 64.9946C154.967 64.8654 155.023 64.7395 155.08 64.6136C155.217 64.2824 155.36 63.9511 155.507 63.6199C155.533 63.5536 155.56 63.4907 155.59 63.4278C155.747 63.07 155.923 62.7156 156.067 62.3611C156.423 61.5794 156.787 60.8009 157.163 60.0424C157.29 59.7807 157.417 59.519 157.547 59.2606C157.677 59.0023 157.763 58.8201 157.88 58.5981C157.997 58.3762 158.063 58.2271 158.16 58.0449C158.257 57.8628 158.36 57.6508 158.467 57.452C158.613 57.1671 158.763 56.8823 158.913 56.6007C159.11 56.2264 159.31 55.8554 159.51 55.4877C160.05 54.5006 160.606 53.5245 161.177 52.5594C161.327 52.3044 161.477 52.0526 161.63 51.8009C161.81 51.4961 161.993 51.1947 162.18 50.8933C162.597 50.2076 163.027 49.5252 163.463 48.8528C163.69 48.4983 163.923 48.1439 164.157 47.7928C164.34 47.5112 164.527 47.2329 164.713 46.958C165.751 45.4122 166.829 43.905 167.947 42.4364C168.12 42.2046 168.297 41.976 168.473 41.7474C168.583 41.5984 168.693 41.4526 168.807 41.3102L169.447 40.492C170.22 39.5115 171.013 38.5454 171.827 37.5936C172.103 37.2623 172.38 36.9311 172.66 36.6263C172.94 36.3216 173.143 36.0731 173.39 35.7982C173.637 35.5233 173.91 35.2119 174.177 34.9237C174.367 34.7117 174.56 34.4997 174.757 34.291C176.432 32.4713 178.173 30.7146 179.98 29.0208C188.16 36.7201 195.068 45.6519 200.45 55.4877C187.305 69.0563 179.974 87.1655 180 106C180 106.858 180 107.713 180.047 108.561C180.435 120.123 183.604 131.426 189.287 141.523C189.849 142.524 190.434 143.509 191.043 144.478L292.043 44.1093C281.171 37.3744 268.705 33.6042 255.9 33.178C255.047 33.1449 254.187 33.1316 253.323 33.1316C244.857 33.1217 236.454 34.572 228.487 37.418C222.812 27.4863 215.932 18.2848 208 10.0203C210.078 9.04644 212.189 8.14102 214.333 7.30406L215.22 6.97281C215.96 6.68794 216.707 6.41631 217.457 6.15131C217.767 6.03869 218.08 5.93269 218.393 5.82007C218.707 5.70744 219.017 5.60475 219.333 5.48881C219.65 5.37288 220 5.26357 220.35 5.15757C220.763 5.02175 221.18 4.89257 221.6 4.76338L222.653 4.43213C223.46 4.19363 224.271 3.96286 225.087 3.73982C225.317 3.67688 225.543 3.61394 225.773 3.55763C226.067 3.47813 226.363 3.39863 226.66 3.32575C226.957 3.25288 227.327 3.1535 227.66 3.07069C228.08 2.968 228.5 2.86531 228.923 2.76925L229.55 2.65L230.303 2.48438C231.243 2.279 232.19 2.08356 233.143 1.90469C233.573 1.82188 234.003 1.74238 234.437 1.66619H234.483C234.91 1.58669 235.34 1.51382 235.77 1.44425C236.497 1.325 237.228 1.21459 237.963 1.113L238.72 0.993753C239.867 0.838065 241.017 0.69894 242.177 0.57969L242.71 0.52669C243.023 0.493565 243.333 0.467065 243.643 0.440565C244.103 0.397503 244.563 0.357753 245.023 0.324627L245.537 0.28819C245.837 0.265002 246.14 0.241815 246.443 0.225252H246.547L247.643 0.162315C248.147 0.135815 248.643 0.112627 249.16 0.0927525L250.2 0.0596275C250.463 0.0596275 250.73 0.043065 250.993 0.0397525H251.74C252.27 0.0397525 252.8 0.0397525 253.333 0.0397525H254.713H255.563L256.387 0.0596275C256.993 0.0596275 257.6 0.0993775 258.207 0.125877C258.443 0.125877 258.677 0.145752 258.913 0.162315C259.336 0.18219 259.759 0.205377 260.183 0.231877L261.107 0.294815L261.423 0.318002C261.7 0.337877 261.977 0.357752 262.253 0.384252C262.53 0.410752 262.747 0.424002 262.993 0.44719C263.297 0.47369 263.6 0.50019 263.907 0.533315C264.076 0.546565 264.246 0.563128 264.417 0.583003C265.137 0.655877 265.853 0.735378 266.57 0.828128C266.84 0.85794 267.113 0.894378 267.387 0.930815C268.053 1.01694 268.697 1.10638 269.35 1.20575L270.33 1.35813C270.663 1.40782 270.997 1.46082 271.303 1.51713L272.273 1.68607C272.7 1.75894 273.127 1.83844 273.547 1.92125C273.88 1.97757 274.18 2.0405 274.497 2.10344L275.163 2.24257C275.81 2.37507 276.45 2.51419 277.09 2.65994L278.033 2.87857C278.351 2.95144 278.668 3.02763 278.983 3.10713C279.617 3.2595 280.247 3.42071 280.873 3.59075L281.81 3.8425L282.747 4.10419C283.37 4.28307 283.993 4.46525 284.61 4.65407L285.677 4.98532L286.74 5.31657L287.797 5.66769C288.5 5.90619 289.2 6.15463 289.897 6.40638L290.937 6.79063C291.223 6.89663 291.51 7.00704 291.797 7.12188C292.243 7.2875 292.683 7.45313 293.13 7.63863L294.04 8.00963L295.06 8.43363C295.393 8.57606 295.727 8.72182 296.06 8.87088C296.393 9.01994 296.727 9.16238 297.06 9.31475L298.06 9.77188C298.393 9.92425 298.727 10.0799 299.06 10.2389C299.493 10.441 299.923 10.6464 300.35 10.8584L301.04 11.1896C301.373 11.3519 301.707 11.5209 302.04 11.6865C302.707 12.0178 303.34 12.349 303.987 12.7068L304.833 13.1672C305.417 13.4984 305.993 13.8065 306.563 14.1378L307.23 14.5187C308.057 14.999 308.877 15.4893 309.687 15.9961L310.287 16.3704C310.473 16.4863 310.66 16.6023 310.843 16.7215C311.177 16.9434 311.537 17.1654 311.88 17.384C312.123 17.5397 312.363 17.6954 312.6 17.8577C312.837 18.02 313.053 18.1591 313.267 18.3148C315.127 19.5692 316.942 20.8831 318.713 22.2567C318.93 22.419 319.147 22.5879 319.36 22.7569C320.313 23.5033 321.252 24.2663 322.177 25.0458L323.11 25.8375C323.443 26.1224 323.777 26.4073 324.11 26.6988C324.317 26.8776 324.52 27.0598 324.723 27.2453C325.167 27.6362 325.603 28.037 326.037 28.4411C326.3 28.6829 326.563 28.9281 326.823 29.1765C328.137 30.4132 329.416 31.6841 330.66 32.9892C330.91 33.2476 331.157 33.5093 331.4 33.7709C331.807 34.2016 332.21 34.6355 332.603 35.0761C332.79 35.2781 332.973 35.4802 333.153 35.6856C333.447 36.0168 333.733 36.3481 334.02 36.6793C334.307 37.0106 334.54 37.2789 334.797 37.5803C335.579 38.4968 336.347 39.4298 337.1 40.3794C337.27 40.5914 337.433 40.8067 337.603 41.022C338.297 41.9053 338.972 42.7964 339.63 43.6952L242.373 140.314L214.613 167.901C225.486 174.636 237.952 178.406 250.757 178.832C251.61 178.865 252.47 178.878 253.333 178.878C293.833 178.878 326.667 146.25 326.667 106.003C326.667 105.145 326.667 104.291 326.62 103.443L341.62 88.5365L355.333 74.9056C355.523 75.5184 355.707 76.1378 355.887 76.7573C355.973 77.0653 356.063 77.3767 356.15 77.6881C356.237 77.9994 356.32 78.3075 356.403 78.6189C356.572 79.2416 356.734 79.8677 356.89 80.4971C356.97 80.8129 357.047 81.1276 357.12 81.4411L357.34 82.3786C357.487 83.0146 357.627 83.6506 357.76 84.2932L357.9 84.9557C357.963 85.2704 358.027 85.5851 358.083 85.8998C358.167 86.3171 358.247 86.7411 358.32 87.1651C358.38 87.4853 358.437 87.8067 358.49 88.1291C358.547 88.4603 358.6 88.7916 358.65 89.0963C358.7 89.4011 358.753 89.7588 358.803 90.0702C358.903 90.7194 358.996 91.3698 359.08 92.0213C359.117 92.2929 359.153 92.5645 359.183 92.8328C359.277 93.545 359.357 94.2572 359.43 94.9727C359.45 95.1405 359.467 95.3095 359.48 95.4795C359.513 95.7843 359.54 96.0857 359.567 96.3871C359.59 96.6323 359.613 96.8774 359.63 97.1225C359.647 97.3676 359.677 97.6724 359.697 97.9473C359.697 98.0533 359.713 98.156 359.72 98.262C359.743 98.5668 359.763 98.8748 359.783 99.1796C359.81 99.6014 359.833 100.022 359.853 100.442C359.853 100.677 359.88 100.909 359.89 101.144C359.917 101.747 359.94 102.35 359.957 102.953L359.977 103.771C359.977 104.052 359.977 104.334 359.977 104.615C359.992 105.081 360 105.543 360 106Z" fill="#71A894"/>
<path d="M180 29.0274C178.196 30.7234 176.454 32.4801 174.777 34.2976C174.58 34.5063 174.387 34.7183 174.197 34.9303C173.93 35.2185 173.667 35.51 173.41 35.8048C173.153 36.0996 172.92 36.3547 172.68 36.6329C172.44 36.9112 172.123 37.2755 171.847 37.6001C171.033 38.5497 170.24 39.5159 169.467 40.4986L168.827 41.3168C168.71 41.4592 168.6 41.605 168.493 41.754C168.317 41.9826 168.14 42.2112 167.967 42.443C166.856 43.9204 165.778 45.4276 164.733 46.9646C164.547 47.2395 164.36 47.5178 164.177 47.7993C163.943 48.1505 163.71 48.5049 163.483 48.8593C163.047 49.5218 162.617 50.2142 162.2 50.8998C162.013 51.2013 161.83 51.5027 161.65 51.8075C161.497 52.0592 161.347 52.311 161.197 52.566C160.628 53.5311 160.072 54.5072 159.53 55.4943C152.696 48.4105 144.488 42.7763 135.403 38.9317C126.317 35.087 116.542 33.1117 106.667 33.125C66.1667 33.125 33.3333 65.7531 33.3333 106C33.3333 146.247 66.1667 178.875 106.667 178.875C115.133 178.885 123.536 177.435 131.503 174.589C137.18 184.519 144.064 193.719 152 201.98C137.817 208.601 122.336 212.023 106.667 212C47.7567 212 0 164.542 0 106C0 47.4582 47.7567 -3.91843e-05 106.667 -3.91843e-05C133.95 -0.0164738 160.2 10.3738 180 29.0274Z" fill="#303031"/>
</g>
<defs>
<clipPath id="clip0_79_3">
<rect width="360" height="212" fill="white"/>
</clipPath>
</defs>
</svg>
